<?xml version="1.0" encoding="UTF-8"?>
<svg xmlns="http://www.w3.org/2000/svg" version="1.1" width="2000" height="2000" style="background: transparent;">

<path d="M0 0 C8.12744238 4.38802218 16.17264833 8.91008901 24.1875 13.5 C24.7929364 13.84626434 25.3983728 14.19252869 26.02215576 14.54928589 C35.39838824 19.91253249 44.74335258 25.32759926 54.06591797 30.78369141 C61.29604936 35.01371869 68.55050851 39.19995335 75.8125 43.375 C84.70905405 48.49271018 93.55653061 53.68647614 102.375 58.9375 C112.1104988 64.73362916 121.90889892 70.40327459 131.75970459 75.99972534 C140.39550213 80.90842351 148.96686936 85.91402809 157.5 91 C166.6775781 96.46894535 175.90249783 101.84149347 185.1875 107.125 C196.8617401 113.76846103 208.48162951 120.50001247 220.07324219 127.28662109 C225.00508069 130.17381184 229.9396018 133.05639926 234.875 135.9375 C236.35601196 136.8022998 236.35601196 136.8022998 237.86694336 137.68457031 C245.16640213 141.94224279 252.48716354 146.16205109 259.8125 150.375 C268.70896889 155.49286114 277.5565281 160.68647464 286.375 165.9375 C296.1104988 171.73362916 305.90889892 177.40327459 315.75970459 182.99972534 C325.51233066 188.54324318 335.1743344 194.2274673 344.80932617 199.97363281 C354.43271549 205.6986633 364.14316466 211.26283008 373.890625 216.7734375 C374.99535156 217.39992188 376.10007812 218.02640625 377.23828125 218.671875 C378.20805908 219.2194043 379.17783691 219.76693359 380.17700195 220.33105469 C381.10859131 220.88180664 382.04018066 221.43255859 383 222 C384.03247866 222.54546545 385.06495731 223.0909309 386.1287232 223.65292561 C389 226 389 226 389.75554699 229.25988662 C389.75944748 231.22119984 389.75944748 231.22119984 389.76342678 233.22213554 C389.77304621 233.95433077 389.78266565 234.686526 389.79257658 235.44090897 C389.81759436 237.9083256 389.79966972 240.37357938 389.78208923 242.84103394 C389.79114629 244.62213846 389.80281097 246.40323132 389.81686693 248.1843034 C389.84783194 253.08936218 389.84113063 257.99376625 389.82832515 262.89887977 C389.82094578 268.1846635 389.84793788 273.47028649 389.87043762 278.75601196 C389.90874803 289.11552125 389.91405112 299.47479752 389.90703683 309.83436571 C389.90169446 318.25243855 389.9069208 326.67044045 389.91971016 335.08850479 C389.92149573 336.28518655 389.92328129 337.48186831 389.92512097 338.71481315 C389.92875611 341.14563664 389.93239851 343.57646012 389.9360481 346.00728358 C389.9687016 368.8201786 389.96217448 391.63294069 389.94389356 414.44584323 C389.92838444 435.3285836 389.96215137 456.2109042 390.01918822 477.09356152 C390.0772658 498.52105209 390.10210156 519.9483439 390.09081846 541.37591374 C390.08507338 553.41183029 390.09263195 565.44738953 390.13496208 577.48324203 C390.17063364 587.72981599 390.17499818 597.97581278 390.13859158 608.22239433 C390.12087457 613.45277898 390.11776165 618.68210678 390.15359879 623.91242218 C390.18601122 628.69844988 390.17707119 633.48253166 390.13481373 638.26846613 C390.12682636 640.0019535 390.13411904 641.73559068 390.15802132 643.46893166 C390.32461268 656.44815926 390.32461268 656.44815926 387.01660264 660.32363534 C384.72042289 661.88452129 382.5740321 662.9792995 380 664 C379.10748535 664.5347998 378.2149707 665.06959961 377.29541016 665.62060547 C376.55081543 666.03197754 375.8062207 666.44334961 375.0390625 666.8671875 C374.16999268 667.3516333 373.30092285 667.8360791 372.40551758 668.33520508 C371.02916138 669.09740356 371.02916138 669.09740356 369.625 669.875 C360.94410792 674.72988758 352.35421466 679.7169404 343.8125 684.8125 C334.53134089 690.34430787 325.20361027 695.78194119 315.8125 701.125 C304.13814039 707.7682488 292.51836787 714.500014 280.92675781 721.28662109 C266.55043686 729.70278897 252.15029945 738.0760615 237.71582031 746.39208984 C226.4520275 752.88499878 215.22447236 759.43942556 204 766 C190.59382119 773.83575666 177.17079317 781.64037711 163.71582031 789.39208984 C152.4520275 795.88499878 141.22447236 802.43942556 130 809 C116.59241282 816.83657983 103.16840721 824.64278608 89.71142578 832.39428711 C82.46077963 836.57327623 75.22531821 840.77738823 68 845 C56.45277514 851.74713114 44.87097881 858.4333937 33.28222656 865.10888672 C27.85340062 868.23680146 22.42677993 871.36853731 17 874.5 C10.47766725 878.26363919 3.95486238 882.02644622 -2.5703125 885.78515625 C-13.16757686 891.89129288 -23.75343116 898.01551759 -34.3125 904.1875 C-42.15691274 908.76686731 -50.00498295 913.33974744 -57.875 917.875 C-58.76743408 918.39344482 -59.65986816 918.91188965 -60.5793457 919.44604492 C-61.3962085 919.91502197 -62.21307129 920.38399902 -63.0546875 920.8671875 C-63.77124512 921.28081543 -64.48780273 921.69444336 -65.22607422 922.12060547 C-67 923 -67 923 -69 923 C-69 743.48 -69 563.96 -69 379 C-59.76 373.72 -50.52 368.44 -41 363 C-33.4038307 358.62315959 -25.80851981 354.24508723 -18.21777344 349.85888672 C-12.81329355 346.73675395 -7.40652588 343.61858796 -2 340.5 C0.1666775 339.25001878 2.33334417 338.00001879 4.5 336.75 C8.83333333 334.25 13.16666667 331.75 17.5 329.25 C19.11068359 328.3206665 19.11068359 328.3206665 20.75390625 327.37255859 C22.90733509 326.13032038 25.06097884 324.88845463 27.21484375 323.64697266 C32.24206755 320.74870197 37.26721002 317.84701928 42.28442383 314.93145752 C44.04975211 313.90584372 45.81578471 312.88145336 47.58203125 311.85742188 C49.7891632 310.57728534 51.99498923 309.29489334 54.19921875 308.00976562 C55.70935547 307.13481445 55.70935547 307.13481445 57.25 306.2421875 C58.55710937 305.48204346 58.55710937 305.48204346 59.890625 304.70654297 C64.1935719 302.34492246 68.60977417 300.19511291 73 298 C73.495 485.11 73.495 485.11 74 676 C90.39744899 666.63002915 106.77704444 657.25440821 123.07324219 647.71337891 C137.44956314 639.29721103 151.84970055 630.9239385 166.28417969 622.60791016 C176.55254128 616.68880832 186.79067023 610.71864524 197.0234375 604.73828125 C200.03513124 602.97948373 203.04854184 601.22366394 206.0625 599.46875 C207.58593018 598.58135132 207.58593018 598.58135132 209.14013672 597.67602539 C211.01127444 596.58618638 212.88265569 595.49676528 214.75439453 594.40795898 C216.58032113 593.34391194 218.39128507 592.25384765 220.18784904 591.14094067 C223.15053051 589.38450102 226.1919123 588.04441333 229.36157417 586.70127583 C240.00011302 581.99926917 240.00011302 581.99926917 247.27089834 573.37973952 C249.28952561 565.66572039 248.81890595 557.73345883 248.58935547 549.83081055 C248.59301679 547.17814683 248.60540393 544.52684873 248.62864685 541.87442017 C248.66126176 536.18349383 248.61412861 530.49783525 248.51125717 524.80780602 C248.36266247 516.58222098 248.33675792 508.3597553 248.33982863 500.13299439 C248.3415225 486.7841563 248.24537885 473.43791542 248.08691406 460.09008789 C247.93328414 447.13171194 247.8262269 434.1743161 247.78125 421.21508789 C247.77845708 420.41500149 247.77566416 419.61491508 247.7727866 418.79058363 C247.75905945 414.77638895 247.74624211 410.76219197 247.73387694 406.74799287 C247.63027707 373.49703123 247.36756825 340.24910812 247 307 C246.22742355 306.69817307 245.45484711 306.39634613 244.65885925 306.08537292 C241.85637127 304.94136932 239.35385159 303.5732634 236.73828125 302.05078125 C235.71549072 301.45789307 234.6927002 300.86500488 233.63891602 300.25415039 C232.54119873 299.61340576 231.44348145 298.97266113 230.3125 298.3125 C229.1498542 297.63695098 227.98700871 296.96174553 226.82397461 296.28686523 C225.01853509 295.23903698 223.21330002 294.19086762 221.40882874 293.14137268 C217.43018845 290.82747163 213.44437085 288.52649739 209.453125 286.234375 C198.46295219 279.92167478 187.51549357 273.54580122 176.625 267.0625 C166.23955354 260.88100888 155.78239198 254.84146915 145.27880859 248.86401367 C134.78334836 242.88975209 124.34852473 236.81507116 113.92675781 230.71337891 C108.99491931 227.82618816 104.0603982 224.94360074 99.125 222.0625 C98.13765869 221.4859668 97.15031738 220.90943359 96.13305664 220.31542969 C88.83359787 216.05775721 81.51283646 211.83794891 74.1875 207.625 C65.2910238 202.50713466 56.44372918 197.31310175 47.625 192.0625 C38.61834476 186.70565659 29.58123964 181.40740499 20.49041748 176.1947937 C19.25904493 175.48861687 18.02827795 174.78138292 16.79815674 174.07302856 C15.08879187 173.08947267 13.3764841 172.11103676 11.6640625 171.1328125 C10.68904785 170.57480957 9.7140332 170.01680664 8.70947266 169.44189453 C7.81534668 168.96606934 6.9212207 168.49024414 6 168 C5.17959229 167.53682373 4.35918457 167.07364746 3.51391602 166.59643555 C0.89515214 165.70735442 0.89515214 165.70735442 -1.8112793 167.24487305 C-3.33362183 168.27414917 -3.33362183 168.27414917 -4.88671875 169.32421875 C-6.04510273 170.08528247 -7.20448323 170.84483112 -8.36474609 171.60302734 C-8.96333435 172.00132751 -9.56192261 172.39962769 -10.1786499 172.80999756 C-13.1107106 174.72569702 -16.12594512 176.49455454 -19.14453125 178.26953125 C-20.39435975 179.01031962 -21.64403108 179.75137324 -22.89355469 180.49267578 C-23.53111694 180.87006897 -24.1686792 181.24746216 -24.82556152 181.6362915 C-26.88468295 182.85523016 -28.94292075 184.07564983 -31.00097656 185.29638672 C-36.71515672 188.68527494 -42.43098731 192.07137319 -48.14794922 195.45556641 C-52.18274925 197.84405724 -56.21670758 200.23396429 -60.25 202.625 C-60.91272919 203.0177713 -61.57545837 203.4105426 -62.25827026 203.81521606 C-72.25471671 209.74249035 -82.19574718 215.75571344 -92.11437988 221.81207275 C-101.39685365 227.47487289 -110.7808149 232.94254122 -120.21899414 238.34130859 C-128.15904112 242.89853909 -136.001715 247.60134225 -143.8125 252.375 C-153.38177529 258.22315887 -163.00138814 263.97236413 -172.6875 269.625 C-181.77846694 274.93244663 -190.84927634 280.26938042 -199.875 285.6875 C-200.87950195 286.29037842 -201.88400391 286.89325684 -202.91894531 287.5144043 C-208.16021051 290.66773756 -213.38586585 293.84505059 -218.59765625 297.046875 C-219.66193848 297.69954346 -220.7262207 298.35221191 -221.82275391 299.0246582 C-223.85752806 300.27426281 -225.88987023 301.52783855 -227.91943359 302.78588867 C-228.82129395 303.33994385 -229.7231543 303.89399902 -230.65234375 304.46484375 C-231.44632568 304.955896 -232.24030762 305.44694824 -233.05834961 305.95288086 C-235 307 -235 307 -237 307 C-237 450.55 -237 594.1 -237 742 C-240.98450484 740.40619806 -244.28649165 738.77223399 -247.953125 736.61328125 C-248.5216066 736.27965576 -249.0900882 735.94603027 -249.67579651 735.60229492 C-251.53595264 734.50920164 -253.39301633 733.41097272 -255.25 732.3125 C-256.55546956 731.54367182 -257.86105379 730.77503832 -259.16674805 730.0065918 C-268.43808892 724.5433023 -277.66869528 719.01302877 -286.88696289 713.46069336 C-294.94657914 708.61282807 -303.0574204 703.85763354 -311.18823242 699.13037109 C-320.570135 693.67525679 -329.91357113 688.15647762 -339.25146484 682.62646484 C-342.07910234 680.95319064 -344.90843992 679.28282535 -347.73828125 677.61328125 C-348.6926709 677.0500415 -349.64706055 676.48680176 -350.63037109 675.90649414 C-352.41303615 674.85453881 -354.19589156 673.80290595 -355.97900391 672.75170898 C-357.6368138 671.77294188 -359.28519086 670.77799068 -360.92289752 669.76594543 C-363.20515639 668.4561598 -365.35621741 667.37632671 -367.74870139 666.32427979 C-373.44028824 663.6564981 -378.0641013 661.41712324 -380.41272867 655.35137939 C-381.16755874 650.78190253 -381.06490003 646.21010789 -380.99223328 641.59375 C-381.01884627 639.8119547 -381.05194199 638.03024649 -381.09093696 636.24867916 C-381.17866743 631.36383499 -381.1729879 626.48291878 -381.15143764 621.59749866 C-381.14425265 616.32473731 -381.2230304 611.0531415 -381.29014587 605.78089905 C-381.40695256 595.45496179 -381.44082738 585.13035677 -381.44228151 574.8038184 C-381.44394468 566.40678137 -381.47006974 558.01017343 -381.51343727 549.61325073 C-381.6340197 525.79115297 -381.69399141 501.97007182 -381.67308619 478.14767015 C-381.6719614 476.86385599 -381.67083661 475.58004184 -381.66967773 474.25732422 C-381.6685399 472.97193681 -381.66740207 471.68654941 -381.66622976 470.36221087 C-381.65142954 449.54080475 -381.77911184 428.72305767 -381.97231092 407.90263629 C-382.16925938 386.50972354 -382.26153744 365.11858202 -382.24453288 343.72474098 C-382.23706514 331.71905748 -382.27199431 319.71703723 -382.41892052 307.7121582 C-382.54317266 297.48721158 -382.56944374 287.26770615 -382.47073653 277.04238504 C-382.42313778 271.82748272 -382.41970865 266.62289274 -382.53962708 261.4089222 C-383.21540901 230.08654276 -383.21540901 230.08654276 -376.22155976 222.68209839 C-369.82672987 216.94234278 -362.14733484 213.45226894 -354.23364985 210.31731796 C-350.1407963 208.64997928 -346.51269783 206.52052651 -342.80078125 204.1484375 C-340.63919063 202.88861573 -338.4764706 201.63072932 -336.3125 200.375 C-333.87648431 198.9550391 -331.44192265 197.53259953 -329.0078125 196.109375 C-328.41379135 195.76214386 -327.8197702 195.41491272 -327.20774841 195.05715942 C-320.32368951 191.02745193 -313.48993946 186.91491763 -306.65673828 182.79980469 C-300.88636954 179.32683856 -295.10685641 175.87024745 -289.3125 172.4375 C-288.65044052 172.04527252 -287.98838104 171.65304504 -287.30625916 171.24893188 C-284.58334563 169.63607229 -281.86030059 168.02343479 -279.13723755 166.41082764 C-269.59257235 160.75581429 -260.09320997 155.03196322 -250.625 149.25 C-240.76489687 143.22895166 -230.80945528 137.39510138 -220.78100586 131.65869141 C-212.84095888 127.10146091 -204.998285 122.39865775 -197.1875 117.625 C-187.61823302 111.7768462 -177.99881862 106.02727189 -168.3125 100.375 C-159.30076237 95.11546719 -150.31504799 89.81854396 -141.375 84.4375 C-132.91362468 79.34457069 -124.4360821 74.28062334 -115.9375 69.25 C-114.82802002 68.59306152 -113.71854004 67.93612305 -112.57543945 67.25927734 C-108.4145883 64.796025 -104.25348875 62.33319283 -100.09191895 59.87115479 C-95.41421569 57.10367716 -90.73769617 54.33421093 -86.0625 51.5625 C-85.38982086 51.16377686 -84.71714172 50.76505371 -84.02407837 50.35424805 C-73.93819185 44.3728139 -63.90606513 38.30810474 -53.89907837 32.19580078 C-44.35386909 26.37060416 -34.70661176 20.7560817 -25.00097656 15.20385742 C-16.5303445 10.34492443 -8.21697009 5.27524515 0 0 Z " fill="#FEFEFE" transform="translate(995,538)"/>
</svg>